<?xml version="1.0" encoding="UTF-8" standalone="no"?>
<!-- Created with Inkscape (http://www.inkscape.org/) -->
<svg xmlns:dc="http://purl.org/dc/elements/1.1/" xmlns:cc="http://creativecommons.org/ns#" xmlns:rdf="http://www.w3.org/1999/02/22-rdf-syntax-ns#" xmlns:svg="http://www.w3.org/2000/svg" xmlns="http://www.w3.org/2000/svg" xmlns:xlink="http://www.w3.org/1999/xlink" xmlns:sodipodi="http://sodipodi.sourceforge.net/DTD/sodipodi-0.dtd" xmlns:inkscape="http://www.inkscape.org/namespaces/inkscape" id="svg2" version="1.1" inkscape:version="0.48+devel r12830" viewBox="0 0 950 950.00002" sodipodi:docname="bom de bola.svg">
  <defs id="defs4">
    <linearGradient inkscape:collect="always" id="linearGradient4530">
      <stop style="stop-color:#55d400;stop-opacity:1;" offset="0" id="stop4532"/>
      <stop style="stop-color:#55d400;stop-opacity:0;" offset="1" id="stop4534"/>
    </linearGradient>
    <filter style="color-interpolation-filters:sRGB" id="filter3095" height="1" width="1" y="0" x="0" inkscape:label="Film grain" inkscape:menu="Image effects" inkscape:menu-tooltip="Adds a small scale graininess">
      <feTurbulence id="feTurbulence3097" type="fractalNoise" numOctaves="3" baseFrequency="1" seed="0" result="result0"/>
      <feColorMatrix id="feColorMatrix3099" result="result4" values="0" type="saturate"/>
      <feComposite k4="0" id="feComposite3101" in2="result4" in="SourceGraphic" operator="arithmetic" k1="1.25" k2="0.5" k3="0.5" result="result2"/>
      <feBlend id="feBlend3103" in2="SourceGraphic" result="result5" mode="normal" in="result2"/>
      <feComposite id="feComposite3105" in2="SourceGraphic" in="result5" operator="in" result="result3"/>
    </filter>
    <filter inkscape:collect="always" id="filter3944">
      <feGaussianBlur inkscape:collect="always" stdDeviation="10.562233" id="feGaussianBlur3946"/>
    </filter>
    <linearGradient inkscape:collect="always" xlink:href="#linearGradient3918" id="linearGradient4390" gradientUnits="userSpaceOnUse" x1="411.26859" y1="-757.26361" x2="398.11588" y2="-500.13309"/>
    <linearGradient inkscape:collect="always" id="linearGradient3918">
      <stop style="stop-color:#1a1a1a;stop-opacity:1;" offset="0" id="stop3920"/>
      <stop style="stop-color:#1a1a1a;stop-opacity:0;" offset="1" id="stop3922"/>
    </linearGradient>
    <linearGradient inkscape:collect="always" xlink:href="#linearGradient3918" id="linearGradient4382" gradientUnits="userSpaceOnUse" x1="411.26859" y1="-757.26361" x2="398.11588" y2="-500.13309"/>
    <linearGradient inkscape:collect="always" xlink:href="#linearGradient3918" id="linearGradient4384" gradientUnits="userSpaceOnUse" x1="411.26859" y1="-757.26361" x2="398.11588" y2="-500.13309"/>
    <linearGradient inkscape:collect="always" xlink:href="#linearGradient3918" id="linearGradient4386" gradientUnits="userSpaceOnUse" x1="411.26859" y1="-757.26361" x2="398.11588" y2="-500.13309"/>
    <linearGradient inkscape:collect="always" xlink:href="#linearGradient3918" id="linearGradient4388" gradientUnits="userSpaceOnUse" x1="411.26859" y1="-757.26361" x2="398.11588" y2="-500.13309"/>
    <clipPath clipPathUnits="userSpaceOnUse" id="clipPath4154">
      <path style="fill:none;stroke:#000000;stroke-width:1px;stroke-linecap:butt;stroke-linejoin:miter;stroke-opacity:1" d="m 666.41617,2084.2919 c 107.78152,-112.5614 31.2399,-248.5939 3.69206,-317.5168 -170.33704,-241.9346 -103.96595,-365.7234 -30.21011,-448.8703 95.44434,-107.5969 280.00254,-85.1971 366.64758,0.9972 96.2452,95.7446 104.8811,235.6223 3.2317,407.2605 -76.35537,132.9404 -97.16169,238.1064 -55.38083,311.9787 l 64.61103,105.2236 c 45.9575,287.0767 -425.09173,349.8281 -380.28185,-1.846 z" id="path4156" inkscape:connector-curvature="0" sodipodi:nodetypes="ccsaccccc" clip-path="none"/>
    </clipPath>
    <filter inkscape:collect="always" id="filter4288" x="-0.058227275" width="1.1164545" y="-0.15070587" height="1.3014117">
      <feGaussianBlur inkscape:collect="always" stdDeviation="3.8654297" id="feGaussianBlur4290"/>
    </filter>
    <filter inkscape:collect="always" style="color-interpolation-filters:sRGB" id="filter5290" x="-0.0042797638" width="1.0085595" y="-0.046711821" height="1.0934236">
      <feGaussianBlur inkscape:collect="always" stdDeviation="2.5042606" id="feGaussianBlur5292"/>
    </filter>
    <radialGradient inkscape:collect="always" xlink:href="#linearGradient4530" id="radialGradient4536" cx="491.49338" cy="676.77655" fx="491.49338" fy="676.77655" r="339.92172" gradientTransform="matrix(1.0348661,0,0,0.89180334,1.4022847,98.858419)" gradientUnits="userSpaceOnUse"/>
    <filter inkscape:label="Combined Lighting" inkscape:menu="Bevels" inkscape:menu-tooltip="Basic specular bevel to use for building textures" style="color-interpolation-filters:sRGB;" id="filter4036">
      <feGaussianBlur stdDeviation="6" in="SourceGraphic" result="result0" id="feGaussianBlur4038"/>
      <feDiffuseLighting lighting-color="rgb(255,255,255)" diffuseConstant="1" surfaceScale="4" result="result5" id="feDiffuseLighting4040">
        <feDistantLight elevation="45" azimuth="235" id="feDistantLight4042"/>
      </feDiffuseLighting>
      <feComposite k1="1.4" in2="SourceGraphic" in="result5" result="fbSourceGraphic" operator="arithmetic" id="feComposite4044"/>
      <feGaussianBlur result="result0" in="fbSourceGraphic" stdDeviation="6" id="feGaussianBlur4046"/>
      <feSpecularLighting specularExponent="25" specularConstant="1" surfaceScale="4" lighting-color="rgb(255,255,255)" result="result1" in="result0" id="feSpecularLighting4048">
        <feDistantLight azimuth="235" elevation="45" id="feDistantLight4050"/>
      </feSpecularLighting>
      <feComposite k3="1" k2="1" operator="arithmetic" in="fbSourceGraphic" in2="result1" result="result4" id="feComposite4052"/>
      <feComposite operator="in" result="result2" in2="SourceGraphic" in="result4" id="feComposite4054"/>
    </filter>
  </defs>
  <sodipodi:namedview id="base" pagecolor="#ffffff" bordercolor="#666666" borderopacity="1.0" inkscape:pageopacity="0.0" inkscape:pageshadow="2" inkscape:zoom="0.435" inkscape:cx="695.50464" inkscape:cy="775.7261" inkscape:document-units="px" inkscape:current-layer="layer1" showgrid="false" inkscape:window-width="1024" inkscape:window-height="712" inkscape:window-x="-4" inkscape:window-y="-4" inkscape:window-maximized="1"/>
  <metadata id="metadata7">
    <rdf:RDF>
      <cc:Work rdf:about="">
        <dc:format>image/svg+xml</dc:format>
        <dc:type rdf:resource="http://purl.org/dc/dcmitype/StillImage"/>
        <dc:title/>
      </cc:Work>
    </rdf:RDF>
  </metadata>
  <g inkscape:label="Layer 1" inkscape:groupmode="layer" id="layer1" transform="translate(0,-102.36218)">
    <g id="g3799" transform="matrix(0.88067633,0,0,0.88067633,62.863235,64.792266)">
      <g style="opacity:0.52899996;filter:url(#filter5290)" transform="matrix(0.97871297,0,1.3137567,0.43908369,-330.40456,582.12188)" id="g4482">
        <path style="fill:#008000;stroke:none" d="m -896.2136,991.22504 -50.51967,-45.92699 84.9649,50.51969 -9.18539,-59.70509 34.44522,62.0014 34.44524,-52.816 -20.66715,59.70505 87.26125,-87.26125 -50.51966,84.96495 112.52107,-4.59275 32.14888,-22.96342 11.48175,34.44517 39.03792,-29.85247 9.1854,34.44517 75.7795,-4.5927 -16.07444,-52.81596 39.03792,48.22326 9.1854,-48.22326 c 0,0 0,73.48306 6.88904,62.00136 6.88905,-11.4817 45.92697,-66.59406 45.92697,-66.59406 l -22.96348,55.11236 89.55759,-4.5927 36.74158,-41.33426 -16.07444,48.22326 87.26124,-9.1854 -9.1854,-41.33425 c 0,0 13.7781,48.22335 16.07444,39.0379 2.29635,-9.1854 16.07444,-48.2233 16.07444,-48.2233 l -2.29634,50.51965 c 0,0 41.33427,-43.63056 29.85253,-34.44517 -11.48175,9.1854 -16.07444,34.44517 -16.07444,34.44517 l 101.03934,-6.88905 0,43.63065 -783.05486,0 z" id="path3963" inkscape:connector-curvature="0" sodipodi:nodetypes="ccccccccccccccccccscccccccsccsccccc"/>
        <path sodipodi:nodetypes="ccccccccccccccccccscccccccsccsccccc" inkscape:connector-curvature="0" id="path3965" d="m -113.55992,1000.4809 50.519666,-45.92695 -84.964906,50.51965 9.1854,-59.70505 -34.44523,62.00145 -34.44523,-52.81605 20.66714,59.70505 -87.26124,-87.26125 50.51966,84.96485 -140.07725,0 -29.85253,-32.14877 13.77808,39.03787 -39.03792,-29.85247 -9.1854,34.44517 -75.7795,-4.5927 16.07444,-52.81597 -39.03792,48.22327 -9.1854,-48.22327 c 0,0 0,73.48307 -6.88904,62.00137 -6.88905,-11.4818 -45.92697,-66.59407 -45.92697,-66.59407 l 22.96348,55.11227 -89.55759,-4.5927 -36.74158,-41.33417 16.07444,48.22327 -87.26124,-9.1854 9.1854,-41.33425 c 0,0 -13.7781,48.22325 -16.07444,39.03795 -2.29635,-9.18545 -16.07444,-48.22335 -16.07444,-48.22335 l 2.29634,50.51965 c 0,0 -41.33427,-43.63057 -29.85253,-34.44517 11.48175,9.1854 16.07444,34.44517 16.07444,34.44517 l -101.03934,-6.889 0,43.6306 783.05486,0 z" style="fill:#008000;stroke:none"/>
      </g>
      <ellipse ry="303.14334" rx="351.77344" cy="702.40997" cx="510.03214" id="path4528" style="opacity:0.66799999;fill:url(#radialGradient4536);fill-opacity:1;stroke:none" d="M 861.80557,702.40997 A 351.77344,303.14334 0 0 1 510.03214,1005.5533 351.77344,303.14334 0 0 1 158.2587,702.40997 351.77344,303.14334 0 0 1 510.03214,399.26663 351.77344,303.14334 0 0 1 861.80557,702.40997 Z"/>
      <path style="fill:#008000;stroke:none" d="m 98.154023,991.22504 -50.519669,-45.92699 84.964896,50.51969 -9.18539,-59.70509 34.44522,62.0014 34.44524,-52.816 -20.66715,59.70505 87.26125,-87.26125 -50.51966,84.96495 112.52107,-4.59275 32.14888,-22.96342 11.48175,34.44517 39.03792,-29.85247 9.1854,34.44517 75.7795,-4.5927 -16.07444,-52.81596 39.03792,48.22326 9.1854,-48.22326 c 0,0 0,73.48306 6.88904,62.00136 6.88905,-11.4817 45.92697,-66.59406 45.92697,-66.59406 l -22.96348,55.11236 89.55759,-4.5927 36.74158,-41.33426 -16.07444,48.22326 87.26124,-9.1854 -9.1854,-41.33425 c 0,0 13.7781,48.22335 16.07444,39.0379 2.29635,-9.1854 16.07444,-48.2233 16.07444,-48.2233 l -2.29634,50.51965 c 0,0 41.33427,-43.63056 29.85253,-34.44517 -11.48175,9.1854 -16.07444,34.44517 -16.07444,34.44517 l 101.03934,-6.88905 0,43.63065 -783.05486,0 z" id="path3856" inkscape:connector-curvature="0" sodipodi:nodetypes="ccccccccccccccccccscccccccsccsccccc"/>
      <path sodipodi:nodetypes="ccccccccccccccccccscccccccsccsccccc" inkscape:connector-curvature="0" id="path3854" d="m 880.8077,1000.4809 50.51967,-45.92695 -84.96491,50.51965 9.1854,-59.70505 -34.44523,62.00145 -34.44523,-52.81605 20.66714,59.70505 -87.26124,-87.26125 50.51966,84.96485 -140.07725,0 -29.85253,-32.14877 13.77808,39.03787 -39.03792,-29.85247 -9.1854,34.44517 -75.7795,-4.5927 16.07444,-52.81597 -39.03792,48.22327 -9.1854,-48.22327 c 0,0 0,73.48307 -6.88904,62.00137 -6.88905,-11.4818 -45.92697,-66.59407 -45.92697,-66.59407 l 22.96348,55.11227 -89.55759,-4.5927 -36.74158,-41.33417 16.07444,48.22327 -87.26124,-9.1854 9.1854,-41.33425 c 0,0 -13.7781,48.22325 -16.07444,39.03795 -2.29635,-9.18545 -16.07444,-48.22335 -16.07444,-48.22335 l 2.29634,50.51965 c 0,0 -41.33427,-43.63057 -29.85253,-34.44517 11.48175,9.1854 16.07444,34.44517 16.07444,34.44517 l -101.039338,-6.889 0,43.6306 783.054858,0 z" style="fill:#00ff00;stroke:none"/>
      <g transform="matrix(-0.76817256,0.06966263,0.06966263,0.76817256,692.29255,-422.87299)" id="g3754">
        <path style="fill:#c87137;fill-opacity:1;stroke:#000000;stroke-width:1px;stroke-linecap:butt;stroke-linejoin:miter;stroke-opacity:1" d="m 169.89025,1104.2652 c -12.65316,49.8233 -8.22423,92.8138 -2.35805,135.2293 55.57706,17.0687 22.1949,2.4308 40.99891,6.1275 l 21.67331,-137.5856 z" id="path4055" inkscape:connector-curvature="0" sodipodi:nodetypes="ccccc"/>
        <path style="fill:#ffff00;stroke:#ffcc00;stroke-width:1px;stroke-linecap:butt;stroke-linejoin:miter;stroke-opacity:1" d="m 243.39397,1015.6838 c -64.08018,22.6165 -95.50615,126.1274 -95.50615,126.1274 l 103.04498,-5.5059 z" id="path4049" inkscape:connector-curvature="0" sodipodi:nodetypes="cccc"/>
        <path sodipodi:nodetypes="ccc" inkscape:connector-curvature="0" id="path4250" d="m 48.370255,1809.1323 c 9.725466,16.2092 18.370357,2.1612 18.370357,2.1612 z" style="fill:#ff0000;stroke:#000000;stroke-width:1px;stroke-linecap:butt;stroke-linejoin:miter;stroke-opacity:1"/>
        <path style="fill:#bf6b33;fill-opacity:1;stroke:#000000;stroke-width:1px;stroke-linecap:butt;stroke-linejoin:miter;stroke-opacity:1" d="m 243.78124,1475.7132 -104.19598,324.0729 -131.9981213,-0.177 168.0133913,34.5856 103.2055,-346.5274 z" id="path4210" inkscape:connector-curvature="0" inkscape:transform-center-x="454.61788" inkscape:transform-center-y="561.01825"/>
        <path style="fill:#bf6b33;fill-opacity:1;stroke:#000000;stroke-width:1px;stroke-linecap:butt;stroke-linejoin:miter;stroke-opacity:1" d="m 395.60235,1530.2095 c 15.97148,29.5553 48.53479,253.931 77.03487,137.3357 22.68997,-64.2698 58.40017,-111.4394 103.4135,-160.1683 l -17.05883,-25.9698 -40.99862,38.7827 c -18.30236,28.0075 -54.42493,55.1361 -59.51913,89.5958 l -22.09785,-110.2667 z" id="path3621" inkscape:connector-curvature="0" sodipodi:nodetypes="cccccccc"/>
        <path style="fill:#0000ff;stroke:#000000;stroke-width:1px;stroke-linecap:butt;stroke-linejoin:miter;stroke-opacity:1" d="m 475.21343,1409.5884 -248.78187,-39.5789 c -4.64143,48.3743 -22.32084,96.7485 -52.77191,145.1228 39.93578,30.2865 83.35758,25.7128 126.90388,19.8941 l 25.75774,-53.819 18.84712,58.0072 c 50.96414,-9.1622 91.40301,7.9888 135.69918,15.4966 -16.40148,-48.3743 -29.16172,-96.7485 -5.65414,-145.1228 z" id="path4053" inkscape:connector-curvature="0" sodipodi:nodetypes="cccccccc"/>
        <path style="fill:#ffff00;stroke:#ffcc00;stroke-width:1px;stroke-linecap:butt;stroke-linejoin:miter;stroke-opacity:1" d="m 232.08571,1015.6838 c 90.86071,10.3737 173.37752,-12.6283 273.28311,33.9248 -20.95771,108.7829 -87.10701,199.5022 -16.96242,324.1703 -4.36437,28.1176 45.22374,83.3303 -280.82194,1.8847 53.48388,-99.3814 40.31397,-227.2169 24.50125,-359.9798 z" id="path4047" inkscape:connector-curvature="0" sodipodi:nodetypes="ccccc"/>
        <path style="fill:#c87137;fill-opacity:1;stroke:#008000;stroke-width:30.79999924;stroke-linecap:butt;stroke-linejoin:miter;stroke-miterlimit:4;stroke-opacity:1;stroke-dasharray:none" d="m 316.89769,1032.6462 c -62.19546,15.0777 1.88472,62.1955 15.07769,62.1955 13.19298,0 11.669,20.2827 71.61904,-9.4236 17.63112,-8.7365 20.73181,-49.0025 -7.53886,-49.0025 -28.27067,0 -79.15787,-3.7694 -79.15787,-3.7694 z" id="path4043" inkscape:connector-curvature="0" sodipodi:nodetypes="csssc"/>
        <g id="g4000" transform="matrix(0.29842695,0,0,0.29842695,243.39397,712.93882)">
          <path sodipodi:nodetypes="ccccc" inkscape:connector-curvature="0" id="path3998" d="M 688.38794,667.11756 C 589.77528,823.49129 481.73605,1105.1066 479.97692,1229.1958 L 284.19686,1241.8267 221.042,679.74853 Z" style="fill:#c87137;fill-opacity:1;stroke:#000000;stroke-width:16.75451851;stroke-linecap:butt;stroke-linejoin:miter;stroke-miterlimit:4;stroke-opacity:1;stroke-dasharray:none"/>
          <g transform="translate(364.49375,482.68355)" id="g3950">
            <path style="fill:#c87137;stroke:#552200;stroke-width:16.75451851;stroke-linecap:butt;stroke-linejoin:miter;stroke-miterlimit:4;stroke-opacity:1;stroke-dasharray:none" d="m 642.30769,-320.71474 c 40.42867,24.21563 -161.02594,96.25692 -256.16738,435.18899 -30.29824,107.9345 -131.92059,211.04578 -243.83262,334.04177 -188.480797,69.65017 -250.02541,52.73436 -307.69231,3.84616 0,0 -128.56395,-283.70122 -126.92307,-434.615382 1.9441,-178.802268 29.32596,-380.208818 161.53846,-511.538458 365.50307,-62.09743 590.97372,31.39672 773.07692,173.07692 z" id="path3094" inkscape:connector-curvature="0" sodipodi:nodetypes="csccacc"/>
            <path style="opacity:0.36149795;fill:#ff9955;stroke:none" d="m -78.492465,-333.43581 c -40.599545,-73.0792 -111.006865,-54.30113 -124.505285,-51.4261 -4.30267,0.91642 -104.63834,317.614367 -67.66592,525.08752 59.04365,331.3273 289.883039,417.25374 249.010579,295.0234 C -72.014582,284.64142 -171.577,45.792397 -100.14556,-30.292508 -53.68295,-79.781962 -78.492465,-333.43581 -78.492465,-333.43581 Z" id="path3948" inkscape:connector-curvature="0" sodipodi:nodetypes="cssssc"/>
            <path style="fill:#552200;fill-opacity:1;stroke:#000000;stroke-width:3.35090375px;stroke-linecap:butt;stroke-linejoin:miter;stroke-opacity:1" d="m -41.538284,-170.9712 c -38.961792,-161.90393 26.997006,-69.75689 -203.847056,-69.74371 6.55683,0 174.916933,-54.84864 182.565899,-56.64348 31.501328,-7.39183 26.922618,25.12778 44.871029,64.61429 17.94841174221933,39.4865 10.7690473,57.43491 -23.589872,61.7729 z" id="path3074" inkscape:connector-curvature="0" sodipodi:nodetypes="ccssc"/>
            <path transform="matrix(0.75605893,0.40590483,-0.29970958,0.42883032,51.821392,7.2859249)" style="color:#000000;fill:#ffffff;stroke:#000000;stroke-width:12.34244633;stroke-linecap:round;stroke-linejoin:miter;stroke-miterlimit:4;stroke-opacity:0.99526068;stroke-dasharray:148.10935029, 12.34244586;stroke-dashoffset:0;marker:none;visibility:visible;display:inline;overflow:visible;enable-background:accumulate" d="m -219.23076,-111.09936 c 0,54.166389 -25.59096,85.41847 -81.88152,85.41847 -56.29056,0 -99.06818,-27.677789 -99.06818,-81.84418 0,-54.16638 54.47757,-93.82577 110.76813,-93.82577 56.29056,0 70.18157,36.0851 70.18157,90.25148 z" id="path3078" inkscape:connector-curvature="0" sodipodi:nodetypes="sssss"/>
            <ellipse ry="51.923077" rx="115.38461" cy="-88.02243" cx="207.69231" style="color:#000000;fill:#ffffff;stroke:#000000;stroke-width:12.46586609;stroke-linecap:round;stroke-linejoin:miter;stroke-miterlimit:4;stroke-opacity:0.99526068;stroke-dasharray:149.59040079, 12.46586674;stroke-dashoffset:0;marker:none;visibility:visible;display:inline;overflow:visible;enable-background:accumulate" id="path3080" transform="matrix(0.6004834,0.17156769,-0.20491833,0.66934733,80.323729,-47.430448)" d="M 323.07692,-88.02243 A 115.38461,51.923077 0 0 1 207.69231,-36.099354 115.38461,51.923077 0 0 1 92.307693,-88.02243 115.38461,51.923077 0 0 1 207.69231,-139.94551 115.38461,51.923077 0 0 1 323.07692,-88.02243 Z"/>
            <path style="fill:none;stroke:#552200;stroke-width:16.75451851;stroke-linecap:butt;stroke-linejoin:miter;stroke-miterlimit:4;stroke-opacity:1;stroke-dasharray:none" d="M -115.38462,275.43911 C 28.625392,260.63964 20.157506,290.95254 223.07692,148.51603" id="path3082" inkscape:connector-curvature="0" sodipodi:nodetypes="cc"/>
            <path style="fill:#c87137;fill-opacity:1;stroke:#552200;stroke-width:10.05271149;stroke-linecap:butt;stroke-linejoin:miter;stroke-miterlimit:4;stroke-opacity:1;stroke-dasharray:none" d="M 26.923077,-74.560894 -176.92308,67.746798 19.230769,113.90064" id="path3084" inkscape:connector-curvature="0"/>
            <path style="fill:#784421;stroke:#000000;stroke-width:3.35090375px;stroke-linecap:butt;stroke-linejoin:miter;stroke-opacity:1;filter:url(#filter3095)" d="M 622.05103,-218.66342 453.84615,13.900644 423.07692,-9.1762785 469.23077,-97.637817 403.84615,-224.56089 Z" id="path3096" inkscape:connector-curvature="0" sodipodi:nodetypes="cccccc"/>
            <path style="fill:#c87137;stroke:#552200;stroke-width:16.75451851;stroke-linecap:butt;stroke-linejoin:miter;stroke-miterlimit:4;stroke-opacity:1;stroke-dasharray:none" d="m 407.42154,-13.006343 c 143.6882,-11.072132 102.63518,75.465931 55.95916,116.246203 -24.47871,21.38675 -104.53416,7.30831 -104.53416,7.30831" id="path3092" inkscape:connector-curvature="0" sodipodi:nodetypes="csc"/>
            <ellipse ry="28.846153" rx="46.153847" cy="-149.5609" cx="-150" style="color:#000000;fill:#808000;fill-opacity:1;fill-rule:evenodd;stroke:#000000;stroke-width:9.98685455;stroke-linecap:round;stroke-linejoin:miter;stroke-miterlimit:4;stroke-opacity:0.99526068;stroke-dasharray:119.84226376, 9.98685531;stroke-dashoffset:0;marker:none;visibility:visible;display:inline;overflow:visible;enable-background:accumulate" id="path3866" transform="matrix(0.8028177,0.17422367,-0.15870208,0.81384211,-41.774505,-11.323776)" d="M -103.84615,-149.5609 A 46.153847,28.846153 0 0 1 -150,-120.71474 46.153847,28.846153 0 0 1 -196.15385,-149.5609 46.153847,28.846153 0 0 1 -150,-178.40705 a 46.153847,28.846153 0 0 1 46.15385,28.84615 z"/>
            <ellipse ry="28.846153" rx="46.153847" cy="-149.5609" cx="-150" transform="matrix(0.56747344,0.30575379,-0.37029631,0.46856302,250.89302,50.99626)" id="path3868" style="color:#000000;fill:#808000;fill-opacity:1;fill-rule:evenodd;stroke:#000000;stroke-width:13.38508701;stroke-linecap:round;stroke-linejoin:miter;stroke-miterlimit:4;stroke-opacity:0.99526068;stroke-dasharray:160.6210426, 13.38508688;stroke-dashoffset:0;marker:none;visibility:visible;display:inline;overflow:visible;enable-background:accumulate" inkscape:transform-center-y="-20.770226" d="M -103.84615,-149.5609 A 46.153847,28.846153 0 0 1 -150,-120.71474 46.153847,28.846153 0 0 1 -196.15385,-149.5609 46.153847,28.846153 0 0 1 -150,-178.40705 a 46.153847,28.846153 0 0 1 46.15385,28.84615 z"/>
            <path style="opacity:0.23886641;color:#000000;fill:#803300;fill-opacity:1;fill-rule:evenodd;stroke:none;stroke-width:2;marker:none;visibility:visible;display:inline;overflow:visible;filter:url(#filter3944);enable-background:accumulate" d="m 489.90125,-230.58362 c -29.46431,-13.30586 -37.28904,-22.62985 -62.25265,-46.41021 -2.83133,-2.69713 -15.60804,-3.03657 -18.94645,-5.15669 -15.72729,-9.98788 -34.29443,-22.35552 -51.4261,-38.67516 -6.00025,-5.71585 -36.3071,-0.53385 -46.01282,-5.15669 -58.41046,-27.82093 -167.36828,-20.62676 -240.890675,-20.62676 -28.38438,0 -70.50477921,6.38288 -94.732285,-5.15669 -7.582742,-3.61166 -21.477865,1.97548 -29.773002,0 -10.45859,-2.49072 -42.07553,-20.0406 -54.132738,-25.78345 -30.04421,-14.31007 -72.33725,-19.46195 -56.83937,-48.98855 2.88708,-5.50046 -2.88708,-15.12628 0,-20.62675 7.48271,-14.25607 53.29087,-60.19012 73.079188,-69.61531 8.57144,-4.08258 10.68971,-20.56158 16.23982,-23.2051 14.04837,-6.69124 32.647688,-14.71734 46.012828,-23.2051 15.01497,-9.53552 22.7980898,-21.17212 37.8929138,-28.3618 13.2739212,-6.32237 27.9459122,-8.57288 37.8929142,-18.0484 1.974687,-1.88109 10.215711,0 13.533184,0 17.040748,0 40.220698,-3.95775 56.839372,0 14.23404,3.38984 27.63294,15.68595 40.59955,20.62675 13.53088,5.15581 29.03912,10.03374 43.30619,15.47007 8.0197,3.05583 19.40833,-0.33968 27.06637,2.57835 24.67751,9.40312 64.76804,25.60126 83.90574,43.83185 24.00044,22.86285 40.92266,58.30123 54.13273,87.66372 2.44655,5.43804 0.30134,14.51665 2.70664,20.62675 8.27771,21.02763 23.08707,35.03816 29.773,54.14525 0.78796,2.25182 15.32511,13.44881 18.94646,18.04841 4.27091,5.42463 7.78749,16.52174 13.53318,20.62676 18.95335,13.54122 67.93792,26.30165 75.78583,41.25351 2.00497,3.81988 0,13.68339 0,18.04841 0,3.73391 1.71527,12.20213 0,15.47007 -3.27843,6.24608 -12.56734,14.79607 -16.23982,20.62676 z" id="path3930" inkscape:connector-curvature="0"/>
            <g id="g3902">
              <path sodipodi:nodetypes="cccccccccccccc" inkscape:connector-curvature="0" id="path3086" d="m 193.88634,-605.54861 -456.5703,107.81062 288.115701,5.80858 -232.733461,100.57517 369.4393,-52.01906 -264.31647,116.28061 397.22396,-85.41288 -217.723192,111.07439 353.380252,-77.28469 -167.37631,107.39255 279.40001,-63.138 -165.72432,141.47819 248.7254,-28.83804 c 60.35807,-90.95675 149.65637,-488.64118 -431.84057,-383.72744 z" style="fill:#6c5353;stroke:#ffffff;stroke-width:3.35090375px;stroke-linecap:butt;stroke-linejoin:miter;stroke-opacity:1"/>
              <path style="fill:#e9c6af;stroke:#ffffff;stroke-width:3.35090351px;stroke-linecap:butt;stroke-linejoin:miter;stroke-opacity:1" d="m 234.23849,-599.67659 -415.78806,98.16859 262.380342,5.28909 -211.945012,91.58025 336.43987,-47.36675 -240.706924,105.88108 361.742714,-77.774 -198.2755,101.14048 321.81526,-70.37275 -152.42575,97.78791 254.44315,-57.49126 -150.92132,128.82511 226.50849,-26.25891 c 54.96671,-82.82205 136.28861,-444.93964 -393.26726,-349.40884 z" id="path3089" inkscape:connector-curvature="0" sodipodi:nodetypes="cccccccccccccc"/>
              <path style="fill:#803300;stroke:#ffffff;stroke-width:3.35090351px;stroke-linecap:butt;stroke-linejoin:miter;stroke-opacity:1" d="m 233.46953,-633.26654 -415.78806,98.16859 262.380344,5.28909 -211.945004,91.58025 336.43986,-47.36675 -240.706917,105.88108 361.742707,-77.774 -198.2755,101.14048 321.81526,-70.37275 -152.42575,97.78791 254.44315,-57.49126 -150.92132,128.82511 226.50849,-26.25891 C 681.7035,-366.67975 763.0254,-728.79734 233.46953,-633.26654 Z" id="path3093" inkscape:connector-curvature="0" sodipodi:nodetypes="cccccccccccccc"/>
              <path sodipodi:nodetypes="cccccccccccccc" inkscape:connector-curvature="0" id="path3091" d="m 243.46963,-666.85604 -415.78806,98.16859 262.380341,5.28909 -211.945001,91.58025 336.43986,-47.36675 -240.70693,105.88108 361.74272,-77.774 -198.2755,101.14048 321.81526,-70.37275 -152.42575,97.78791 254.44315,-57.49126 -150.92132,128.82511 226.5085,-26.25891 c 54.9667,-82.82205 136.2886,-444.93964 -393.26727,-349.40884 z" style="fill:#ffe6d5;stroke:#ffffff;stroke-width:3.35090351px;stroke-linecap:butt;stroke-linejoin:miter;stroke-opacity:1"/>
            </g>
            <path style="fill:none;stroke:#552200;stroke-width:6.7018075;stroke-linecap:butt;stroke-linejoin:miter;stroke-miterlimit:4;stroke-opacity:1;stroke-dasharray:none" d="M 493.52382,33.775438 C 441.47343,1.468297 423.58252,13.14914 423.58252,13.14914 l 0,0" id="path3107" inkscape:connector-curvature="0" sodipodi:nodetypes="ccc"/>
            <path style="fill:none;stroke:#552200;stroke-width:6.7018075;stroke-linecap:butt;stroke-linejoin:miter;stroke-miterlimit:4;stroke-opacity:1;stroke-dasharray:none" d="m 486.40196,47.251122 c -39.48651,30.5123 -62.81944,21.538094 -62.81944,21.538094" id="path3109" inkscape:connector-curvature="0"/>
            <path style="fill:#c87137;fill-opacity:1;stroke:#552200;stroke-width:6.7018075;stroke-linecap:butt;stroke-linejoin:miter;stroke-miterlimit:4;stroke-opacity:1;stroke-dasharray:none" d="m 150.76666,-123.25879 c 56.6717,33.099946 117.53796,56.354979 165.12539,23.332935" id="path3111" inkscape:connector-curvature="0" sodipodi:nodetypes="cc"/>
            <path style="fill:#c87137;fill-opacity:1;stroke:#552200;stroke-width:6.7018075;stroke-linecap:butt;stroke-linejoin:miter;stroke-miterlimit:4;stroke-opacity:1;stroke-dasharray:none" d="m 136.40793,-47.875461 c 86.46666,-14.049877 128.57515,9.717501 159.74086,35.896824" id="path3113" inkscape:connector-curvature="0" sodipodi:nodetypes="cc"/>
            <path style="fill:#552200;stroke:#000000;stroke-width:3.35090375px;stroke-linecap:butt;stroke-linejoin:miter;stroke-opacity:1" d="m 132.81825,-164.54014 c 157.55638,16.57867 227.38794,-22.78273 226.14999,-23.33293 24.17925,-7.41135 34.88527,-5.79934 7.17936,21.53809 -61.89012,18.67486 -116.5058,39.28956 -247.68808,39.48651 0.45463,-9.85663 -20.523023,-6.31809 14.35873,-37.69167 z" id="path3115" inkscape:connector-curvature="0" sodipodi:nodetypes="ccccc"/>
            <path style="fill:none;stroke:#552200;stroke-width:10.05271149;stroke-linecap:butt;stroke-linejoin:miter;stroke-miterlimit:4;stroke-opacity:1;stroke-dasharray:none" d="m -179.48412,-99.925855 c 37.09339,9.881008 74.18677,1.312541 111.280155,-12.563885 -6.864622,24.175073 -29.857815,28.189431 -55.640075,28.717456" id="path3117" inkscape:connector-curvature="0" sodipodi:nodetypes="ccc"/>
            <path style="fill:none;stroke:#552200;stroke-width:10.05271149;stroke-linecap:butt;stroke-linejoin:miter;stroke-miterlimit:4;stroke-opacity:1;stroke-dasharray:none" d="m 95.126583,-159.15561 c 2.51635,17.2269 6.003997,33.4825 17.948407,41.28134" id="path3119" inkscape:connector-curvature="0" sodipodi:nodetypes="cc"/>
            <ellipse ry="6.766592" rx="14.886502" cy="-158.85776" cx="-139.39178" style="color:#000000;fill:#ffffff;fill-opacity:1;fill-rule:evenodd;stroke:none;stroke-width:3;marker:none;visibility:visible;display:inline;overflow:visible;enable-background:accumulate" id="path3121" transform="matrix(1,0,0,1.2,8.1199102,25.004956)" d="m -124.50528,-158.85776 a 14.886502,6.766592 0 0 1 -14.8865,6.76659 14.886502,6.766592 0 0 1 -14.88651,-6.76659 14.886502,6.766592 0 0 1 14.88651,-6.76659 14.886502,6.766592 0 0 1 14.8865,6.76659 z"/>
            <ellipse ry="6.766592" rx="14.886502" cy="-158.85776" cx="-139.39178" transform="matrix(0.72727273,0,0,1.2,317.90678,119.73724)" id="path3123" style="color:#000000;fill:#ffffff;fill-opacity:1;fill-rule:evenodd;stroke:none;stroke-width:3;marker:none;visibility:visible;display:inline;overflow:visible;enable-background:accumulate" d="m -124.50528,-158.85776 a 14.886502,6.766592 0 0 1 -14.8865,6.76659 14.886502,6.766592 0 0 1 -14.88651,-6.76659 14.886502,6.766592 0 0 1 14.88651,-6.76659 14.886502,6.766592 0 0 1 14.8865,6.76659 z"/>
            <path style="fill:none;stroke:#552200;stroke-width:6.36671686;stroke-linecap:butt;stroke-linejoin:miter;stroke-miterlimit:4;stroke-opacity:1;stroke-dasharray:none" d="M 165.10484,240.37116 C 83.871428,305.94725 29.096813,313.31399 -16.23982,299.91717" id="path3125" inkscape:connector-curvature="0" sodipodi:nodetypes="cc"/>
            <path style="fill:none;stroke:#552200;stroke-width:6.7018075;stroke-linecap:butt;stroke-linejoin:miter;stroke-miterlimit:4;stroke-opacity:1;stroke-dasharray:none" d="m 211.11766,110.4526 c 37.82747,2.5615 68.21331,37.45584 32.47965,67.66592 l 0,0" id="path3127" inkscape:connector-curvature="0" sodipodi:nodetypes="ccc"/>
            <path sodipodi:nodetypes="ccc" inkscape:connector-curvature="0" id="path3129" d="m 194.87784,113.15923 c 37.82747,1.74182 68.21331,25.46997 32.47965,46.01283 l 0,0" style="fill:none;stroke:#552200;stroke-width:6.7018075;stroke-linecap:butt;stroke-linejoin:miter;stroke-miterlimit:4;stroke-opacity:1;stroke-dasharray:none"/>
            <ellipse ry="18.946457" rx="20.299776" cy="105.03933" cx="418.17538" style="color:#000000;fill:#d5d5ff;fill-opacity:1;fill-rule:evenodd;stroke:#0000ff;stroke-width:6.7018075;stroke-linecap:round;stroke-linejoin:miter;stroke-miterlimit:4;stroke-opacity:0.99526068;stroke-dasharray:none;stroke-dashoffset:0;marker:none;visibility:visible;display:inline;overflow:visible;enable-background:accumulate" id="path3900" transform="translate(-10.826547,-10.826547)" d="m 438.47516,105.03933 a 20.299776,18.946457 0 0 1 -20.29978,18.94646 20.299776,18.946457 0 0 1 -20.29977,-18.94646 20.299776,18.946457 0 0 1 20.29977,-18.946457 20.299776,18.946457 0 0 1 20.29978,18.946457 z"/>
            <g id="g3908" style="opacity:0.37651822;fill:url(#linearGradient4390);fill-opacity:1;stroke:none">
              <path style="fill:url(#linearGradient4382);fill-opacity:1;stroke:none" d="m 193.88634,-605.54861 -456.5703,107.81062 288.115701,5.80858 -232.733461,100.57517 369.4393,-52.01906 -264.31647,116.28061 397.22396,-85.41288 -217.723192,111.07439 353.380252,-77.28469 -167.37631,107.39255 279.40001,-63.138 -165.72432,141.47819 248.7254,-28.83804 c 60.35807,-90.95675 149.65637,-488.64118 -431.84057,-383.72744 z" id="path3910" inkscape:connector-curvature="0" sodipodi:nodetypes="cccccccccccccc"/>
              <path sodipodi:nodetypes="cccccccccccccc" inkscape:connector-curvature="0" id="path3912" d="m 234.23849,-599.67659 -415.78806,98.16859 262.380342,5.28909 -211.945012,91.58025 336.43987,-47.36675 -240.706924,105.88108 361.742714,-77.774 -198.2755,101.14048 321.81526,-70.37275 -152.42575,97.78791 254.44315,-57.49126 -150.92132,128.82511 226.50849,-26.25891 c 54.96671,-82.82205 136.28861,-444.93964 -393.26726,-349.40884 z" style="fill:url(#linearGradient4384);fill-opacity:1;stroke:none"/>
              <path sodipodi:nodetypes="cccccccccccccc" inkscape:connector-curvature="0" id="path3914" d="m 233.46953,-633.26654 -415.78806,98.16859 262.380344,5.28909 -211.945004,91.58025 336.43986,-47.36675 -240.706917,105.88108 361.742707,-77.774 -198.2755,101.14048 321.81526,-70.37275 -152.42575,97.78791 254.44315,-57.49126 -150.92132,128.82511 226.50849,-26.25891 C 681.7035,-366.67975 763.0254,-728.79734 233.46953,-633.26654 Z" style="fill:url(#linearGradient4386);fill-opacity:1;stroke:none"/>
              <path style="fill:url(#linearGradient4388);fill-opacity:1;stroke:none" d="m 243.46963,-666.85604 -415.78806,98.16859 262.380341,5.28909 -211.945001,91.58025 336.43986,-47.36675 -240.70693,105.88108 361.74272,-77.774 -198.2755,101.14048 321.81526,-70.37275 -152.42575,97.78791 254.44315,-57.49126 -150.92132,128.82511 226.5085,-26.25891 c 54.9667,-82.82205 136.2886,-444.93964 -393.26727,-349.40884 z" id="path3916" inkscape:connector-curvature="0" sodipodi:nodetypes="cccccccccccccc"/>
            </g>
          </g>
        </g>
        <path style="fill:#008000;stroke:#000000;stroke-width:1px;stroke-linecap:butt;stroke-linejoin:miter;stroke-opacity:1" d="m 156.21958,1126.4113 -6.48363,15.1285 75.64255,-2.1612 3.24181,-11.8867 z" id="path4242" inkscape:connector-curvature="0"/>
        <path style="fill:#dc7f42;fill-opacity:1;stroke:#000000;stroke-width:1px;stroke-linecap:butt;stroke-linejoin:miter;stroke-opacity:1" d="m 166.59069,1236.6649 c -6.63797,9.4325 34.66208,31.8048 53.72753,18.846 4.33143,-51.4646 15.70985,-105.7495 27.56686,-160.9769 l -40.30062,0.3077 c -11.81305,49.1259 -25.41269,96.4653 -40.99377,141.8232 z" id="path4057" inkscape:connector-curvature="0" sodipodi:nodetypes="ccccc"/>
        <path sodipodi:nodetypes="ccccc" inkscape:connector-curvature="0" id="path4071" d="m 221.74375,981.75899 79.15787,24.50121 -41.70448,84.2644 -63.83935,-25.8383 z" style="fill:#800000;stroke:#000000;stroke-width:1px;stroke-linecap:butt;stroke-linejoin:miter;stroke-opacity:1"/>
        <path style="fill:#000000;stroke:#000000;stroke-width:1px;stroke-linecap:butt;stroke-linejoin:miter;stroke-opacity:1" d="m 226.43156,981.75899 79.15787,24.50121 -41.70448,84.2644 -63.83935,-25.8383 z" id="path4059" inkscape:connector-curvature="0" sodipodi:nodetypes="ccccc"/>
        <ellipse ry="0.95515954" rx="2.0182946" cy="1014.8646" cx="277.61911" style="color:#000000;fill:#ffffff;fill-opacity:1;fill-rule:evenodd;stroke:#ffffff;stroke-width:15.45209122;stroke-linecap:round;stroke-linejoin:miter;stroke-miterlimit:4;stroke-opacity:0.99526068;stroke-dasharray:none;stroke-dashoffset:0;marker:none;visibility:visible;display:inline;overflow:visible;enable-background:accumulate" id="path4061" d="m 279.6374,1014.8646 a 2.0182946,0.95515954 0 0 1 -2.01829,0.9552 2.0182946,0.95515954 0 0 1 -2.01829,-0.9552 2.0182946,0.95515954 0 0 1 2.01829,-0.9551 2.0182946,0.95515954 0 0 1 2.01829,0.9551 z"/>
        <path style="fill:#dc7f42;fill-opacity:1;stroke:#000000;stroke-width:1px;stroke-linecap:butt;stroke-linejoin:miter;stroke-opacity:1" d="m 201.13209,1051.7073 c -32.68713,-26.7809 -61.52367,6.5953 -47.88377,7.2493 15.20085,0.7289 37.2495,6.5372 37.2495,6.5372 0,0 -4.13766,39.9134 7.98441,43.0044 57.93599,-6.8485 46.48224,3.7859 72.68717,-6.7531 3.07475,-1.2366 3.42355,-4.4601 2.764,-8.0172 l -3.19209,-0.6478 4.50481,-1.2572 c 2.62855,-2.7609 2.92464,-6.1925 2.8734,-9.4898 l -17.05966,-0.6107 20.56791,-1.6304 c 4.34862,-6.8649 5.76251,-7.5895 4.19025,-13.9157 l -34.64848,0.5534 37.46897,-4.1923 c 4.09636,-5.8071 4.15986,-7.3749 4.71359,-12.1691 -11.21452,-2.3681 -26.9746,-3.2906 -39.6807,-3.6685 -17.36698,1.2853 -31.29904,-6.4527 -52.53931,5.0075 z" id="path4065" inkscape:connector-curvature="0" sodipodi:nodetypes="csccscccccccccccc"/>
        <path style="fill:none;stroke:#000000;stroke-width:1px;stroke-linecap:butt;stroke-linejoin:miter;stroke-opacity:1" d="m 157.93655,1050.8449 c -2.79116,3.5007 -2.73043,5.355 -2.30147,6.9968 l 9.50913,0.063 0.46659,-4.6502 z" id="path4067" inkscape:connector-curvature="0" sodipodi:nodetypes="ccccc"/>
        <path style="fill:#dc7f42;fill-opacity:1;stroke:none" d="m 206.3602,1116.0606 -4.21904,-16.8761 45.94062,2.3439 -8.90685,14.5322 0,0" id="path4069" inkscape:connector-curvature="0"/>
        <path style="fill:#c87137;fill-opacity:1;stroke:none" d="m 396.68563,1062.6195 -75.47388,15.001 6.09415,7.9693 62.81678,-2.3439 z" id="path4073" inkscape:connector-curvature="0"/>
        <path style="fill:#bf6b33;fill-opacity:1;stroke:#000000;stroke-width:1px;stroke-linecap:butt;stroke-linejoin:miter;stroke-opacity:1" d="m 546.2333,1132.5173 -19.69518,105.6461 -52.28121,101.4724 -12.79736,-36.7597 20.51438,-58.9045 8.98561,-126.3395 z" id="path4139" inkscape:connector-curvature="0" sodipodi:nodetypes="ccccccc"/>
        <path style="fill:#fff6d5;stroke:#000000;stroke-width:1px;stroke-linecap:butt;stroke-linejoin:miter;stroke-opacity:1" d="m 178.52622,1655.924 53.90662,16.172 -55.70351,159.9231 -34.14088,-39.5316 z" id="path4230" inkscape:connector-curvature="0" sodipodi:nodetypes="ccccc"/>
        <path sodipodi:nodetypes="ccc" inkscape:connector-curvature="0" id="path4248" d="m 22.43567,1803.7293 c 9.725466,16.2091 18.370357,2.1612 18.370357,2.1612 z" style="fill:#ff0000;stroke:#000000;stroke-width:1px;stroke-linecap:butt;stroke-linejoin:miter;stroke-opacity:1"/>
        <path sodipodi:nodetypes="ccc" inkscape:connector-curvature="0" id="path4252" d="m 125.96255,1824.4839 c 9.72546,16.2091 18.37035,2.1612 18.37035,2.1612 z" style="fill:#ff0000;stroke:#000000;stroke-width:1px;stroke-linecap:butt;stroke-linejoin:miter;stroke-opacity:1"/>
        <path sodipodi:nodetypes="ccc" inkscape:connector-curvature="0" id="path4254" d="m 154.05837,1830.9676 c 9.72546,16.2091 18.37036,2.1612 18.37036,2.1612 z" style="fill:#ff0000;stroke:#000000;stroke-width:1px;stroke-linecap:butt;stroke-linejoin:miter;stroke-opacity:1"/>
        <path style="fill:#800080;stroke:#000000;stroke-width:1px;stroke-linecap:butt;stroke-linejoin:miter;stroke-opacity:1" d="m 187.07609,1802.7757 c -0.80817,10.1044 10.0261,17.8803 -12.57822,32.344 L 7.3872523,1802.7757 C -1.8892002,1792.694 -22.2777,1781.3776 9.1841407,1775.8223 58.943224,1763.1086 97.980274,1782.561 138.5601,1797.385 l 0,-12.5782 c 16.172,17.3238 32.34399,24.5895 48.51599,17.9689 z" id="path4232" inkscape:connector-curvature="0" sodipodi:nodetypes="ccccccc"/>
        <path style="fill:#008000;stroke:#000000;stroke-width:1px;stroke-linecap:butt;stroke-linejoin:miter;stroke-opacity:1" d="m 232.51983,1672.1182 -6.06073,18.3704 -53.8073,-17.0783 5.82598,-17.5128 z" id="path4238" inkscape:connector-curvature="0" sodipodi:nodetypes="ccccc"/>
        <path inkscape:connector-curvature="0" id="path4051" d="m 480.86757,1038.9568 c 64.08018,22.6165 82.80024,114.6921 82.80024,114.6921 l -90.33907,5.9294 c 7.32943,-25.7577 6.6306,-75.6002 7.53883,-120.6215 z" style="fill:#ffff00;stroke:#ffcc00;stroke-width:1px;stroke-linecap:butt;stroke-linejoin:miter;stroke-opacity:1" sodipodi:nodetypes="cccc"/>
        <path style="fill:#008000;stroke:#000000;stroke-width:1px;stroke-linecap:butt;stroke-linejoin:miter;stroke-opacity:1" d="m 472.83768,1157.7489 2.16124,-11.8867 84.2874,-5.403 4.32243,15.1285 z" id="path4244" inkscape:connector-curvature="0"/>
        <path style="fill:none;stroke:#ffffff;stroke-width:33.50903702;stroke-linecap:butt;stroke-linejoin:miter;stroke-miterlimit:4;stroke-opacity:1;stroke-dasharray:none;filter:url(#filter4288)" d="m -2248.6491,4144.7073 c -2.6627,20.7556 -5.2778,41.5429 -36.2101,43.4521 l -123.1144,-61.5572" id="path4262" inkscape:connector-curvature="0" sodipodi:nodetypes="ccc" transform="matrix(0.29842695,0,0,0.29842695,794.85883,563.81822)"/>
        <g id="g3601" transform="matrix(0.75761992,0.65269599,0.65269599,-0.75761992,-913.51091,2581.9974)">
          <path sodipodi:nodetypes="ccc" inkscape:connector-curvature="0" id="path3603" d="m 409.0818,1834.2094 c 9.72547,16.2091 18.37036,2.1612 18.37036,2.1612 z" style="fill:#ff0000;stroke:#000000;stroke-width:1px;stroke-linecap:butt;stroke-linejoin:miter;stroke-opacity:1"/>
          <path sodipodi:nodetypes="ccc" inkscape:connector-curvature="0" id="path3605" d="m 436.09702,1834.2094 c 9.72547,16.2091 18.37036,2.1612 18.37036,2.1612 z" style="fill:#ff0000;stroke:#000000;stroke-width:1px;stroke-linecap:butt;stroke-linejoin:miter;stroke-opacity:1"/>
          <path sodipodi:nodetypes="ccc" inkscape:connector-curvature="0" id="path3607" d="m 522.54564,1836.3706 c 9.72547,16.2091 18.37036,2.1612 18.37036,2.1612 z" style="fill:#ff0000;stroke:#000000;stroke-width:1px;stroke-linecap:butt;stroke-linejoin:miter;stroke-opacity:1"/>
          <path style="fill:#ff0000;stroke:#000000;stroke-width:1px;stroke-linecap:butt;stroke-linejoin:miter;stroke-opacity:1" d="m 546.49552,1836.3706 c 9.72547,16.2091 18.37036,2.1612 18.37036,2.1612 z" id="path3609" inkscape:connector-curvature="0" sodipodi:nodetypes="ccc"/>
          <g id="g3611" transform="matrix(0.27337087,0.01347082,-0.00778286,0.18783801,795.9898,1052.7641)">
            <path style="fill:#fff6d5;stroke:#000000;stroke-width:4.40848351px;stroke-linecap:butt;stroke-linejoin:miter;stroke-opacity:1" d="m -1206.5207,3686.534 -187.9361,15.6839 64.5798,561.4395 146.5936,-104.5031 z" id="path3613" inkscape:connector-curvature="0" sodipodi:nodetypes="ccccc"/>
            <path sodipodi:nodetypes="ccccc" inkscape:connector-curvature="0" id="path3615" d="m -1207.2144,3684.8386 -0.4924,85.9632 -185.2658,24.146 -11.9804,-92.0041 z" style="fill:#008000;stroke:#000000;stroke-width:4.40848351px;stroke-linecap:butt;stroke-linejoin:miter;stroke-opacity:1"/>
          </g>
          <path sodipodi:nodetypes="ccccccc" inkscape:connector-curvature="0" id="path3617" d="m 392.44943,1799.9816 c -1.29783,10.0533 -13.50538,18.4639 5.62123,37.2874 l 173.66387,1.1572 c 11.15997,-7.9465 33.44723,-14.8043 3.81304,-26.7426 -46.05668,-22.7242 -88.27146,-13.9336 -131.03905,-7.8173 l 2.59986,-14.9141 c -19.40351,13.607 -40.20464,20.8498 -54.65895,11.0294 z" style="fill:#800080;stroke:#000000;stroke-width:1px;stroke-linecap:butt;stroke-linejoin:miter;stroke-opacity:1"/>
          <path sodipodi:nodetypes="ccc" inkscape:connector-curvature="0" id="path3619" d="m -2248.6491,4144.7073 c -2.6627,20.7556 -5.2778,41.5429 -36.2101,43.4521 l -123.1144,-61.5572" style="fill:none;stroke:#ffffff;stroke-width:33.50903702;stroke-linecap:butt;stroke-linejoin:miter;stroke-miterlimit:4;stroke-opacity:1;stroke-dasharray:none;filter:url(#filter4288)" transform="matrix(-0.29842695,0,0,0.29842695,-213.3483,575.70491)"/>
        </g>
        <g id="g3726">
          <ellipse ry="101.51891" rx="96.312813" cy="1361.3872" cx="649.62946" id="path3636" style="opacity:0.68599997;fill:#ffcc00;fill-opacity:1;stroke:#b3b3b3;stroke-width:1.21359921" d="m 745.94227,1361.3872 a 96.312813,101.51891 0 0 1 -96.31281,101.5189 96.312813,101.51891 0 0 1 -96.31282,-101.5189 96.312813,101.51891 0 0 1 96.31282,-101.5189 96.312813,101.51891 0 0 1 96.31281,101.5189 z"/>
          <path sodipodi:nodetypes="ccc" inkscape:connector-curvature="0" id="path3702" d="m 616.66757,1328.8947 c -70.06453,23.406 -65.63498,59.3201 -1.38267,66.3678 z" style="fill:#ffffff;stroke:none"/>
          <path style="fill:#ffffff;stroke:none" d="m 681.74461,1330.2774 c 70.06453,23.406 65.63498,59.3201 1.38267,66.3678 z" id="path3716" inkscape:connector-curvature="0" sodipodi:nodetypes="ccc"/>
          <path sodipodi:nodetypes="ccc" inkscape:connector-curvature="0" id="path3718" d="m 684.57872,1396.4033 c -18.21142,71.5907 -54.35349,69.8034 -66.08828,6.2399 z" style="fill:#000000;stroke:none"/>
          <path style="fill:#000000;stroke:none" d="m 684.57872,1328.5455 c -18.21142,-71.5907 -54.35349,-69.8034 -66.08828,-6.2399 z" id="path3720" inkscape:connector-curvature="0" sodipodi:nodetypes="ccc"/>
          <g style="fill:#999999;stroke:none" transform="matrix(1,0,0,1.0601156,2.765328,-95.070417)" id="g3662">
            <g style="fill:#999999;stroke:none" id="g3646">
              <g id="text3638" style="font-size:207.32637024px;font-style:normal;font-variant:normal;font-weight:normal;font-stretch:normal;text-align:start;line-height:125%;letter-spacing:0px;word-spacing:0px;writing-mode:lr-tb;text-anchor:start;fill:#999999;fill-opacity:1;stroke:none;font-family:Candy Round BTN;-inkscape-font-specification:'Candy Round BTN, Normal'">
                <path style="fill:#999999;stroke:none" inkscape:connector-curvature="0" id="path3675" d="m 684.15836,1404.4033 q 0,62.0562 -35.93793,62.0562 -22.57508,0 -32.29351,-26.017 -6.68141,-17.7159 -6.68141,-45.1502 0,-13.7677 0.80987,-17.8171 1.11356,-5.3654 6.07401,-5.3654 6.17525,0 6.17525,5.9728 l 0,0.8099 q 0,2.7333 -0.40494,8.0987 -0.40493,5.2641 -0.40493,7.8962 0,21.8664 4.15058,36.6465 6.58018,23.2838 22.57508,23.2838 23.68866,0 23.68866,-50.6168 0,-13.0592 -1.92344,-26.1183 0,0 0,-1.0123 0,-5.9728 6.27649,-5.9728 4.55551,0 5.97278,5.1629 1.92344,6.5802 1.92344,28.1429 z"/>
              </g>
              <g id="text3642" style="font-size:207.32637024px;font-style:normal;font-variant:normal;font-weight:normal;font-stretch:normal;text-align:start;line-height:125%;letter-spacing:0px;word-spacing:0px;writing-mode:lr-tb;text-anchor:start;fill:#999999;fill-opacity:1;stroke:none;font-family:Candy Round BTN;-inkscape-font-specification:'Candy Round BTN, Normal'" transform="scale(1,-1)">
                <path style="fill:#999999;stroke:none" inkscape:connector-curvature="0" id="path3678" d="m 682.77566,-1344.5152 q 0,62.0562 -35.93792,62.0562 -22.57508,0 -32.29351,-26.0171 -6.68141,-17.7159 -6.68141,-45.1502 0,-13.7677 0.80986,-17.8171 1.11357,-5.3653 6.07402,-5.3653 6.17525,0 6.17525,5.9727 l 0,0.8099 q 0,2.7333 -0.40494,8.0987 -0.40493,5.2641 -0.40493,7.8962 0,21.8665 4.15058,36.6466 6.58018,23.2837 22.57508,23.2837 23.68866,0 23.68866,-50.6168 0,-13.0591 -1.92344,-26.1183 0,0 0,-1.0123 0,-5.9728 6.27649,-5.9728 4.55551,0 5.97278,5.1629 1.92343,6.5802 1.92343,28.143 z"/>
              </g>
            </g>
            <g style="fill:#999999;stroke:none" id="g3652" transform="matrix(0,1,-1,0,2020.4699,728.4487)">
              <g id="text3654" style="font-size:207.32637024px;font-style:normal;font-variant:normal;font-weight:normal;font-stretch:normal;text-align:start;line-height:125%;letter-spacing:0px;word-spacing:0px;writing-mode:lr-tb;text-anchor:start;fill:#999999;fill-opacity:1;stroke:none;font-family:Candy Round BTN;-inkscape-font-specification:'Candy Round BTN, Normal'">
                <path style="fill:#999999;stroke:none" inkscape:connector-curvature="0" id="path3681" d="m 684.15836,1404.4033 q 0,62.0562 -35.93793,62.0562 -22.57508,0 -32.29351,-26.017 -6.68141,-17.7159 -6.68141,-45.1502 0,-13.7677 0.80987,-17.8171 1.11356,-5.3654 6.07401,-5.3654 6.17525,0 6.17525,5.9728 l 0,0.8099 q 0,2.7333 -0.40494,8.0987 -0.40493,5.2641 -0.40493,7.8962 0,21.8664 4.15058,36.6465 6.58018,23.2838 22.57508,23.2838 23.68866,0 23.68866,-50.6168 0,-13.0592 -1.92344,-26.1183 0,0 0,-1.0123 0,-5.9728 6.27649,-5.9728 4.55551,0 5.97278,5.1629 1.92344,6.5802 1.92344,28.1429 z"/>
              </g>
              <g id="text3658" style="font-size:207.32637024px;font-style:normal;font-variant:normal;font-weight:normal;font-stretch:normal;text-align:start;line-height:125%;letter-spacing:0px;word-spacing:0px;writing-mode:lr-tb;text-anchor:start;fill:#999999;fill-opacity:1;stroke:none;font-family:Candy Round BTN;-inkscape-font-specification:'Candy Round BTN, Normal'" transform="scale(1,-1)">
                <path style="fill:#999999;stroke:none" inkscape:connector-curvature="0" id="path3684" d="m 682.77566,-1344.5152 q 0,62.0562 -35.93792,62.0562 -22.57508,0 -32.29351,-26.0171 -6.68141,-17.7159 -6.68141,-45.1502 0,-13.7677 0.80986,-17.8171 1.11357,-5.3653 6.07402,-5.3653 6.17525,0 6.17525,5.9727 l 0,0.8099 q 0,2.7333 -0.40494,8.0987 -0.40493,5.2641 -0.40493,7.8962 0,21.8665 4.15058,36.6466 6.58018,23.2837 22.57508,23.2837 23.68866,0 23.68866,-50.6168 0,-13.0591 -1.92344,-26.1183 0,0 0,-1.0123 0,-5.9728 6.27649,-5.9728 4.55551,0 5.97278,5.1629 1.92343,6.5802 1.92343,28.143 z"/>
              </g>
            </g>
          </g>
          <path inkscape:connector-curvature="0" id="path3722" d="m 709.30597,1290.1802 c -44.28185,-1.7 -71.62007,-3.0438 -100.93438,26.2706" style="fill:#ffffff;stroke:none"/>
          <path inkscape:connector-curvature="0" id="path3724" d="m 718.98461,1407.7065 c -4.78059,23.9263 -40.57282,40.0972 -66.36781,40.0972" style="fill:#ffffff;stroke:none"/>
        </g>
        <path style="fill:none;stroke:#000000;stroke-width:1px;stroke-linecap:butt;stroke-linejoin:miter;stroke-opacity:1" d="m 759.08184,1413.2371 c -17.07245,29.085 -36.3515,56.2785 -78.81179,63.6025" id="path3746" inkscape:connector-curvature="0" sodipodi:nodetypes="cc"/>
        <path sodipodi:nodetypes="cc" inkscape:connector-curvature="0" id="path3748" d="m 756.31651,1433.977 c -17.07245,29.085 -36.3515,56.2785 -78.81179,63.6025" style="fill:none;stroke:#000000;stroke-width:1px;stroke-linecap:butt;stroke-linejoin:miter;stroke-opacity:1"/>
        <path sodipodi:nodetypes="cc" inkscape:connector-curvature="0" id="path3750" d="m 572.07429,1249.9145 c 29.53346,-16.2844 59.99781,-29.8155 100.24232,-14.4241" style="fill:none;stroke:#000000;stroke-width:1px;stroke-linecap:butt;stroke-linejoin:miter;stroke-opacity:1"/>
        <path style="fill:none;stroke:#000000;stroke-width:1px;stroke-linecap:butt;stroke-linejoin:miter;stroke-opacity:1" d="m 585.04525,1233.4966 c 29.53345,-16.2843 59.99781,-29.8155 100.24232,-14.424" id="path3752" inkscape:connector-curvature="0" sodipodi:nodetypes="cc"/>
      </g>
      <path inkscape:connector-curvature="0" id="path3387" d="m 446.62855,595.64848 c 4.94686,26.02129 17.75919,67.71465 48.98507,67.71465" style="fill:#fff6d5;stroke:#ffe680;stroke-width:1px;stroke-linecap:butt;stroke-linejoin:miter;stroke-opacity:1"/>
      <path inkscape:connector-curvature="0" id="path3389" d="m 533.07279,539.45973 c 14.49135,4.88426 44.38163,64.97378 30.25548,72.03686" style="fill:#fff6d5;stroke:#ffe680;stroke-width:1px;stroke-linecap:butt;stroke-linejoin:miter;stroke-opacity:1"/>
      <g style="opacity:0.63599997" transform="matrix(0.8087564,0,0,0.8087564,-3.788176,11.246124)" id="g4255">
        <g id="g3429" transform="matrix(-0.99443632,0.10533946,0.10533946,0.99443632,357.98963,-40.908019)">
          <ellipse style="fill:#a05a2c;fill-opacity:1;stroke:#ffe680;stroke-width:5;stroke-linecap:round;stroke-linejoin:bevel;stroke-miterlimit:4;stroke-opacity:1;stroke-dasharray:none;stroke-dashoffset:0" id="ellipse3431" cx="121.74229" cy="369.45273" rx="15.127741" ry="15.84811" d="m 136.87003,369.45273 a 15.127741,15.84811 0 0 1 -15.12774,15.84811 15.127741,15.84811 0 0 1 -15.12774,-15.84811 15.127741,15.84811 0 0 1 15.12774,-15.84811 15.127741,15.84811 0 0 1 15.12774,15.84811 z"/>
          <path style="fill:#dde9af;stroke:none" d="m 132.54782,382.41937 27.374,-36.01844 2.88148,10.08516 -31.69622,38.89991 4.32221,17.28885 -28.81475,0 7.20369,-25.93327 -33.136951,-23.0518 12.966635,-5.76295 27.374006,25.93327 z" id="path3433" inkscape:connector-curvature="0"/>
          <ellipse ry="15.84811" rx="15.127741" cy="359.36755" cx="218.27168" id="ellipse3435" style="fill:#ffccaa;fill-opacity:1;stroke:#ffe680;stroke-width:5;stroke-linecap:round;stroke-linejoin:bevel;stroke-miterlimit:4;stroke-opacity:1;stroke-dasharray:none;stroke-dashoffset:0" d="m 233.39942,359.36755 a 15.127741,15.84811 0 0 1 -15.12774,15.84811 15.127741,15.84811 0 0 1 -15.12774,-15.84811 15.127741,15.84811 0 0 1 15.12774,-15.84811 15.127741,15.84811 0 0 1 15.12774,15.84811 z"/>
          <path inkscape:connector-curvature="0" id="path3437" d="m 206.02542,375.21568 -27.374,-36.01844 -2.88148,10.08516 31.69622,38.89991 -4.32221,17.28885 28.81475,0 -7.20369,-25.93327 33.13695,-23.0518 -12.96664,-5.76295 -27.374,25.93327 z" style="fill:#00ccff;stroke:none"/>
          <path style="fill:#aa87de;stroke:none" d="m 299.67334,376.65642 27.374,-36.01844 2.88148,10.08516 -31.69622,38.89991 4.32221,17.28885 -28.81475,0 7.20369,-25.93327 -33.13695,-23.0518 12.96664,-5.76295 27.374,25.93327 z" id="path3439" inkscape:connector-curvature="0"/>
          <ellipse style="fill:#ffccaa;fill-opacity:1;stroke:#ffe680;stroke-width:5;stroke-linecap:round;stroke-linejoin:bevel;stroke-miterlimit:4;stroke-opacity:1;stroke-dasharray:none;stroke-dashoffset:0" id="ellipse3441" cx="292.87265" cy="352.63522" rx="15.127741" ry="15.84811" d="m 308.00039,352.63522 a 15.127741,15.84811 0 0 1 -15.12774,15.84811 15.127741,15.84811 0 0 1 -15.12774,-15.84811 15.127741,15.84811 0 0 1 15.12774,-15.84811 15.127741,15.84811 0 0 1 15.12774,15.84811 z"/>
        </g>
        <path sodipodi:nodetypes="ccc" inkscape:connector-curvature="0" id="path4253" d="m 267.59725,340.91465 c 8.13752,5.85213 12.67177,6.40531 11.94174,-0.78307 z" style="fill:#ff0000;stroke:#d40000;stroke-width:0.40327856px;stroke-linecap:butt;stroke-linejoin:miter;stroke-opacity:1"/>
        <path sodipodi:nodetypes="ccc" inkscape:connector-curvature="0" id="path4249" d="m 173.42249,340.42921 c 8.13752,5.85213 12.67177,6.40531 11.94174,-0.78307 z" style="fill:#aa0000;stroke:#d40000;stroke-width:0.40327856px;stroke-linecap:butt;stroke-linejoin:miter;stroke-opacity:1"/>
        <g id="g3421">
          <ellipse ry="15.84811" rx="15.127741" cy="369.45273" cx="121.74229" id="path3391" style="fill:#ffccaa;fill-opacity:1;stroke:#ffe680;stroke-width:5;stroke-linecap:round;stroke-linejoin:bevel;stroke-miterlimit:4;stroke-opacity:1;stroke-dasharray:none;stroke-dashoffset:0" d="m 136.87003,369.45273 a 15.127741,15.84811 0 0 1 -15.12774,15.84811 15.127741,15.84811 0 0 1 -15.12774,-15.84811 15.127741,15.84811 0 0 1 15.12774,-15.84811 15.127741,15.84811 0 0 1 15.12774,15.84811 z"/>
          <path inkscape:connector-curvature="0" id="path3393" d="m 132.54782,382.41937 27.374,-36.01844 2.88148,10.08516 -31.69622,38.89991 4.32221,17.28885 -28.81475,0 7.20369,-25.93327 -33.136951,-23.0518 12.966635,-5.76295 27.374006,25.93327 z" style="fill:#ff5555;stroke:none"/>
          <ellipse style="fill:#c87137;fill-opacity:1;stroke:#ffe680;stroke-width:5;stroke-linecap:round;stroke-linejoin:bevel;stroke-miterlimit:4;stroke-opacity:1;stroke-dasharray:none;stroke-dashoffset:0" id="ellipse3397" cx="218.27168" cy="359.36755" rx="15.127741" ry="15.84811" d="m 233.39942,359.36755 a 15.127741,15.84811 0 0 1 -15.12774,15.84811 15.127741,15.84811 0 0 1 -15.12774,-15.84811 15.127741,15.84811 0 0 1 15.12774,-15.84811 15.127741,15.84811 0 0 1 15.12774,15.84811 z"/>
          <path style="fill:#008000;stroke:none" d="m 206.02542,375.21568 -27.374,-36.01844 -2.88148,10.08516 31.69622,38.89991 -4.32221,17.28885 28.81475,0 -7.20369,-25.93327 33.13695,-23.0518 -12.96664,-5.76295 -27.374,25.93327 z" id="path3395" inkscape:connector-curvature="0"/>
          <path inkscape:connector-curvature="0" id="path3401" d="m 299.67334,376.65642 27.374,-36.01844 2.88148,10.08516 -31.69622,38.89991 4.32221,17.28885 -28.81475,0 7.20369,-25.93327 -33.13695,-23.0518 12.96664,-5.76295 27.374,25.93327 z" style="fill:#ffcc00;stroke:none"/>
          <ellipse ry="15.84811" rx="15.127741" cy="352.63522" cx="292.87265" id="ellipse3403" style="fill:#ff9955;fill-opacity:1;stroke:#ffe680;stroke-width:5;stroke-linecap:round;stroke-linejoin:bevel;stroke-miterlimit:4;stroke-opacity:1;stroke-dasharray:none;stroke-dashoffset:0" d="m 308.00039,352.63522 a 15.127741,15.84811 0 0 1 -15.12774,15.84811 15.127741,15.84811 0 0 1 -15.12774,-15.84811 15.127741,15.84811 0 0 1 15.12774,-15.84811 15.127741,15.84811 0 0 1 15.12774,15.84811 z"/>
        </g>
        <path style="fill:#008080;stroke:#e3dbdb;stroke-width:1px;stroke-linecap:butt;stroke-linejoin:miter;stroke-opacity:1" d="m 26.739212,437.15787 0,0 275.180828,5.76295 12.96663,-50.42581 -247.806814,18.72959" id="path3399" inkscape:connector-curvature="0"/>
        <path sodipodi:nodetypes="ccc" inkscape:connector-curvature="0" id="path4245" d="m 112.25366,343.34183 c -8.13751,5.85213 -12.671769,6.40531 -11.94174,-0.78307 z" style="fill:#aa0000;stroke:#d40000;stroke-width:0.40327856px;stroke-linecap:butt;stroke-linejoin:miter;stroke-opacity:1"/>
        <path sodipodi:nodetypes="ccc" inkscape:connector-curvature="0" id="path4247" d="m 118.56812,372.46805 c 8.13752,5.85213 12.67177,6.40531 11.94174,-0.78307 z" style="fill:#aa0000;stroke:#d40000;stroke-width:0.40327856px;stroke-linecap:butt;stroke-linejoin:miter;stroke-opacity:1"/>
        <path sodipodi:nodetypes="ccc" inkscape:connector-curvature="0" id="path4251" d="m 210.3157,361.303 c 8.13752,5.85213 12.67177,6.40531 11.94174,-0.78307 z" style="fill:#ff0000;stroke:#d40000;stroke-width:0.40327856px;stroke-linecap:butt;stroke-linejoin:miter;stroke-opacity:1"/>
        <path style="fill:#aa0000;stroke:#d40000;stroke-width:0.40327856px;stroke-linecap:butt;stroke-linejoin:miter;stroke-opacity:1" d="m 297.20512,355.47776 c -8.13752,5.85213 -12.67177,6.40531 -11.94174,-0.78307 z" id="path4243" inkscape:connector-curvature="0" sodipodi:nodetypes="ccc"/>
      </g>
      <g style="opacity:0.63599997" id="g4278" transform="matrix(-0.8087564,0,0,0.8087564,939.98967,4.5591391)">
        <g transform="matrix(-0.99443632,0.10533946,0.10533946,0.99443632,357.98963,-40.908019)" id="g4280">
          <ellipse ry="15.84811" rx="15.127741" cy="369.45273" cx="121.74229" id="ellipse4282" style="fill:#a05a2c;fill-opacity:1;stroke:#ffe680;stroke-width:5;stroke-linecap:round;stroke-linejoin:bevel;stroke-miterlimit:4;stroke-opacity:1;stroke-dasharray:none;stroke-dashoffset:0" d="m 136.87003,369.45273 a 15.127741,15.84811 0 0 1 -15.12774,15.84811 15.127741,15.84811 0 0 1 -15.12774,-15.84811 15.127741,15.84811 0 0 1 15.12774,-15.84811 15.127741,15.84811 0 0 1 15.12774,15.84811 z"/>
          <path inkscape:connector-curvature="0" id="path4284" d="m 132.54782,382.41937 27.374,-36.01844 2.88148,10.08516 -31.69622,38.89991 4.32221,17.28885 -28.81475,0 7.20369,-25.93327 -33.136951,-23.0518 12.966635,-5.76295 27.374006,25.93327 z" style="fill:#dde9af;stroke:none"/>
          <ellipse style="fill:#ffccaa;fill-opacity:1;stroke:#ffe680;stroke-width:5;stroke-linecap:round;stroke-linejoin:bevel;stroke-miterlimit:4;stroke-opacity:1;stroke-dasharray:none;stroke-dashoffset:0" id="ellipse4286" cx="218.27168" cy="359.36755" rx="15.127741" ry="15.84811" d="m 233.39942,359.36755 a 15.127741,15.84811 0 0 1 -15.12774,15.84811 15.127741,15.84811 0 0 1 -15.12774,-15.84811 15.127741,15.84811 0 0 1 15.12774,-15.84811 15.127741,15.84811 0 0 1 15.12774,15.84811 z"/>
          <path style="fill:#00ccff;stroke:none" d="m 206.02542,375.21568 -27.374,-36.01844 -2.88148,10.08516 31.69622,38.89991 -4.32221,17.28885 28.81475,0 -7.20369,-25.93327 33.13695,-23.0518 -12.96664,-5.76295 -27.374,25.93327 z" id="path4288" inkscape:connector-curvature="0"/>
          <path inkscape:connector-curvature="0" id="path4290" d="m 299.67334,376.65642 27.374,-36.01844 2.88148,10.08516 -31.69622,38.89991 4.32221,17.28885 -28.81475,0 7.20369,-25.93327 -33.13695,-23.0518 12.96664,-5.76295 27.374,25.93327 z" style="fill:#aa87de;stroke:none"/>
          <ellipse ry="15.84811" rx="15.127741" cy="352.63522" cx="292.87265" id="ellipse4292" style="fill:#ffccaa;fill-opacity:1;stroke:#ffe680;stroke-width:5;stroke-linecap:round;stroke-linejoin:bevel;stroke-miterlimit:4;stroke-opacity:1;stroke-dasharray:none;stroke-dashoffset:0" d="m 308.00039,352.63522 a 15.127741,15.84811 0 0 1 -15.12774,15.84811 15.127741,15.84811 0 0 1 -15.12774,-15.84811 15.127741,15.84811 0 0 1 15.12774,-15.84811 15.127741,15.84811 0 0 1 15.12774,15.84811 z"/>
        </g>
        <path style="fill:#ff0000;stroke:#d40000;stroke-width:0.40327856px;stroke-linecap:butt;stroke-linejoin:miter;stroke-opacity:1" d="m 267.59725,340.91465 c 8.13752,5.85213 12.67177,6.40531 11.94174,-0.78307 z" id="path4294" inkscape:connector-curvature="0" sodipodi:nodetypes="ccc"/>
        <path style="fill:#aa0000;stroke:#d40000;stroke-width:0.40327856px;stroke-linecap:butt;stroke-linejoin:miter;stroke-opacity:1" d="m 173.42249,340.42921 c 8.13752,5.85213 12.67177,6.40531 11.94174,-0.78307 z" id="path4296" inkscape:connector-curvature="0" sodipodi:nodetypes="ccc"/>
        <g id="g4298">
          <ellipse style="fill:#ffccaa;fill-opacity:1;stroke:#ffe680;stroke-width:5;stroke-linecap:round;stroke-linejoin:bevel;stroke-miterlimit:4;stroke-opacity:1;stroke-dasharray:none;stroke-dashoffset:0" id="ellipse4300" cx="121.74229" cy="369.45273" rx="15.127741" ry="15.84811" d="m 136.87003,369.45273 a 15.127741,15.84811 0 0 1 -15.12774,15.84811 15.127741,15.84811 0 0 1 -15.12774,-15.84811 15.127741,15.84811 0 0 1 15.12774,-15.84811 15.127741,15.84811 0 0 1 15.12774,15.84811 z"/>
          <path style="fill:#ff5555;stroke:none" d="m 132.54782,382.41937 27.374,-36.01844 2.88148,10.08516 -31.69622,38.89991 4.32221,17.28885 -28.81475,0 7.20369,-25.93327 -33.136951,-23.0518 12.966635,-5.76295 27.374006,25.93327 z" id="path4302" inkscape:connector-curvature="0"/>
          <ellipse ry="15.84811" rx="15.127741" cy="359.36755" cx="218.27168" id="ellipse4304" style="fill:#c87137;fill-opacity:1;stroke:#ffe680;stroke-width:5;stroke-linecap:round;stroke-linejoin:bevel;stroke-miterlimit:4;stroke-opacity:1;stroke-dasharray:none;stroke-dashoffset:0" d="m 233.39942,359.36755 a 15.127741,15.84811 0 0 1 -15.12774,15.84811 15.127741,15.84811 0 0 1 -15.12774,-15.84811 15.127741,15.84811 0 0 1 15.12774,-15.84811 15.127741,15.84811 0 0 1 15.12774,15.84811 z"/>
          <path inkscape:connector-curvature="0" id="path4306" d="m 206.02542,375.21568 -27.374,-36.01844 -2.88148,10.08516 31.69622,38.89991 -4.32221,17.28885 28.81475,0 -7.20369,-25.93327 33.13695,-23.0518 -12.96664,-5.76295 -27.374,25.93327 z" style="fill:#008000;stroke:none"/>
          <path style="fill:#ffcc00;stroke:none" d="m 299.67334,376.65642 27.374,-36.01844 2.88148,10.08516 -31.69622,38.89991 4.32221,17.28885 -28.81475,0 7.20369,-25.93327 -33.13695,-23.0518 12.96664,-5.76295 27.374,25.93327 z" id="path4308" inkscape:connector-curvature="0"/>
          <ellipse style="fill:#ff9955;fill-opacity:1;stroke:#ffe680;stroke-width:5;stroke-linecap:round;stroke-linejoin:bevel;stroke-miterlimit:4;stroke-opacity:1;stroke-dasharray:none;stroke-dashoffset:0" id="ellipse4310" cx="292.87265" cy="352.63522" rx="15.127741" ry="15.84811" d="m 308.00039,352.63522 a 15.127741,15.84811 0 0 1 -15.12774,15.84811 15.127741,15.84811 0 0 1 -15.12774,-15.84811 15.127741,15.84811 0 0 1 15.12774,-15.84811 15.127741,15.84811 0 0 1 15.12774,15.84811 z"/>
        </g>
        <path inkscape:connector-curvature="0" id="path4312" d="m 26.739212,437.15787 0,0 275.180828,5.76295 12.96663,-50.42581 -247.806814,18.72959" style="fill:#008080;stroke:#e3dbdb;stroke-width:1px;stroke-linecap:butt;stroke-linejoin:miter;stroke-opacity:1"/>
        <path style="fill:#aa0000;stroke:#d40000;stroke-width:0.40327856px;stroke-linecap:butt;stroke-linejoin:miter;stroke-opacity:1" d="m 112.25366,343.34183 c -8.13751,5.85213 -12.671769,6.40531 -11.94174,-0.78307 z" id="path4314" inkscape:connector-curvature="0" sodipodi:nodetypes="ccc"/>
        <path style="fill:#aa0000;stroke:#d40000;stroke-width:0.40327856px;stroke-linecap:butt;stroke-linejoin:miter;stroke-opacity:1" d="m 118.56812,372.46805 c 8.13752,5.85213 12.67177,6.40531 11.94174,-0.78307 z" id="path4316" inkscape:connector-curvature="0" sodipodi:nodetypes="ccc"/>
        <path style="fill:#ff0000;stroke:#d40000;stroke-width:0.40327856px;stroke-linecap:butt;stroke-linejoin:miter;stroke-opacity:1" d="m 210.3157,361.303 c 8.13752,5.85213 12.67177,6.40531 11.94174,-0.78307 z" id="path4318" inkscape:connector-curvature="0" sodipodi:nodetypes="ccc"/>
        <path sodipodi:nodetypes="ccc" inkscape:connector-curvature="0" id="path4320" d="m 297.20512,355.47776 c -8.13752,5.85213 -12.67177,6.40531 -11.94174,-0.78307 z" style="fill:#aa0000;stroke:#d40000;stroke-width:0.40327856px;stroke-linecap:butt;stroke-linejoin:miter;stroke-opacity:1"/>
      </g>
    </g>
  </g>
</svg>